#!OML:ASF F:\VICON\USERDATA\INSTALL\rory3\rory3.ASF
:FULLY-SPECIFIED
:DEGREES
54
root 0.441121057978425 17.763412083935023 17.15218021497774 -2.117128368498129 -4.245852630943224 -4.975141176163035
lfemur -23.06305312364696 -3.62336653459732 -15.857189119295432
ltibia 23.1711959741396
lfoot -2.793241679005126 -0.6221783144008097
ltoes -2.206566821421426
rfemur 10.178346827722457 5.123214543213535 29.651087792375737
rtibia 38.53966279735812
rfoot -3.7207961374285032 1.2579590679997406
rtoes -1.250581570876642
lowerback 8.833410723851548 2.8352421877460245 5.2072664743483585
upperback 0.0860511856598819 4.34905479789275 1.1061842007308091
thorax -4.7164007644446215 2.0512557977902297 -2.138478704492902
lowerneck -16.817174001588583 -3.3130606887601384 -1.5625436167066489
upperneck 20.810916666815885 -4.444059872009332 1.4061787720233856
head 9.394001757441792 -2.051835416857843 0.13629898441842153
lclavicle -2.1906512019577327e-15 6.871561306116827e-16
lhumerus -39.19235232397584 7.107341314761948 82.02476971988713
lradius 19.190214222375545
lwrist -0.3343709640087331
lhand -25.463079136476367 23.484159285715478
lfingers 7.12502
lthumb 1.0643357273092657 53.45799493755299
rclavicle -2.1906512019577327e-15 6.871561306116826e-16
rhumerus -24.12135339745839 -13.133508610108183 -81.51136142811669
rradius 28.746689147539158
rwrist 2.1347669715985313
rhand -18.49015372384653 23.695695798779187
rfingers 7.12502
rthumb 7.797165710462563 -6.142304013226418
55
root 0.5526799947989338 17.817729039938687 18.37153387669371 -2.6518048469465842 -4.149790012969913 -3.5026812875489277
lfemur -20.8715360840059 -3.2104002463274433 -18.297643964310218
ltibia 26.163716492656157
lfoot -3.6406750780280137 -1.2115186608799968
ltoes -1.033872108041968
rfemur 6.487293365467423 4.182178429290507 27.139472191942346
rtibia 47.74032074857283
rfoot 5.385695517173298 1.8271171662080796
rtoes 3.91612410539958
lowerback 9.01570320678241 2.8441020842418308 4.046607398316618
upperback 0.09134618311797615 4.2232367096634 0.7683230614442254
thorax -4.818804745655731 2.010094797198989 -1.77065812288147
lowerneck -16.748973235931935 -3.2858359497886522 -1.5951875513103726
upperneck 20.935824661610837 -4.40964527721473 1.461683787289242
head 9.43542670357433 -2.0349689077453466 0.1653691519993504
lclavicle -1.9420848191873957e-15 9.159624962328456e-16
lhumerus -39.00124440939134 7.355377742001904 81.85598278690472
lradius 19.157815598421884
lwrist 0.19987349778763086
lhand -25.185158839150873 23.94177990588977
lfingers 7.12502
lthumb 1.3327755897910434 53.91386126294779
rclavicle -1.9420848191873957e-15 9.159624962328458e-16
rhumerus -24.973645714188777 -14.47783678251317 -81.17686414567088
rradius 28.259588322707692
rwrist 2.9049318463467935
rhand -18.247763366041227 23.25578691645426
rfingers 7.12502
rthumb 8.03111205393395 -6.573337080190402
56
root 0.6421977462631192 17.875170822073343 19.173642251177178 -3.145161956894402 -4.360579924966462 -2.142455898522987
lfemur -18.252163405577342 -3.1557881519218496 -20.542392555454345
ltibia 27.276363028556876
lfoot -5.406773623841549 -0.5379781397719139
ltoes 0.02129444348148013
rfemur 1.2505026984424195 3.1754088038456416 24.735157422568488
rtibia 56.93202201515488
rfoot 11.296122456965271 0.2939653507005069
rtoes 8.836731732607822
lowerback 9.302477017778894 2.7764956393917655 2.757181415470192
upperback 0.15687435998703683 3.9887342608571914 0.4750166998286316
thorax -4.931027109612183 1.9185832368508307 -1.3507479516303973
lowerneck -16.7674167604311 -3.1903382429516 -1.6314672821650154
upperneck 20.94629178866051 -4.26824206724569 1.4393335761892638
head 9.445355127010512 -1.9759461709309614 0.18524572282513527
lclavicle -1.9763557826743024e-15 8.852337917546023e-16
lhumerus -38.471903488879896 6.912126633296264 81.98972527182801
lradius 19.563674923754743
lwrist 1.4766296298701849
lhand -25.517143424023388 23.953908599332966
lfingers 7.12502
lthumb 1.0121613119295123 53.92306508625747
rclavicle -1.9763557826743024e-15 8.852337917546024e-16
rhumerus -25.693931179095312 -15.893095924498134 -80.87956467759179
rradius 27.450626144398292
rwrist 4.020504911501486
rhand -17.968736204685573 22.734436421295918
rfingers 7.12502
rthumb 8.300418500767748 -7.0838307118072175
57
root 0.7130812848138771 17.92594722356118 20.305204463079207 -3.5421827780736344 -4.493201211176299 -0.9217943094326533
lfemur -15.027861709065672 -3.2363487367311747 -22.26185453730178
ltibia 27.59089374854438
lfoot -7.214651464510585 0.8198075685281283
ltoes 0.9288608875406257
rfemur -4.214752390105083 2.212705280699609 23.013665852982914
rtibia 65.1412483097681
rfoot 12.118351541266037 -2.3216265243989938
rtoes 11.599319179982237
lowerback 9.622328136088822 2.6157611052065772 1.6580308981728749
upperback 0.2800597826045547 3.6522423577384915 0.3177863785714168
thorax -5.004588790889094 1.7750577801234269 -0.817943291165855
lowerneck -16.76010321970317 -3.040742396523393 -1.6478654781967723
upperneck 20.898270694495125 -4.039008282242508 1.3657570583230698
head 9.430666965022006 -1.8838276603043371 0.20127415647268393
lclavicle -1.682191584801072e-15 1.157341068846958e-15
lhumerus -37.390155618965906 6.189025471173439 82.30863773500894
lradius 20.223066838241703
lwrist 2.8162181618230124
lhand -26.190820082227432 23.52627331616466
lfingers 7.12502
lthumb 0.361523196430961 53.492723518370575
rclavicle -1.682191584801072e-15 1.157341068846958e-15
rhumerus -26.118472007475795 -17.19992107713421 -80.50481180491562
rradius 26.506777655672458
rwrist 5.518871235119722
rhand -17.68426217191731 22.328411275230334
rfingers 7.12502
rthumb 8.574972191371847 -7.479654170224209
58
root 0.7630877540063015 17.957909504920643 21.240473033406673 -3.8499340986049897 -4.429427627006154 -0.05871518440991119
lfemur -12.125942260585104 -3.408042984826959 -23.670722836450025
ltibia 27.305196982788594
lfoot -9.010064335381518 2.0522950659658434
ltoes 1.43767295440125
rfemur -9.767302541601264 1.3003975946070447 21.8660956426237
rtibia 70.69875038926925
rfoot 8.31762055196052 -4.753474541969544
rtoes 11.653369557364782
lowerback 9.885181890715515 2.2918889729114325 0.7501573675440768
upperback 0.4158472355912005 3.122635571117026 0.27340498918348
thorax -5.045251171567176 1.5336856970647172 -0.3121342520852456
lowerneck -16.687739690713112 -2.880207417079407 -1.6794357766199366
upperneck 20.8532747093195 -3.7876994480446746 1.2361512409273776
head 9.40271188763807 -1.7855450799161057 0.20627485917642555
lclavicle -1.6404525059225573e-15 1.1964483642126358e-15
lhumerus -36.00421950864684 5.099030329790306 82.65930520903429
lradius 20.867063204624742
lwrist 3.5809680073117356
lhand -26.803351417050965 22.915831876137403
lfingers 7.12502
lthumb -0.23007022615255857 52.88191531097375
rclavicle -1.6404525059225573e-15 1.1964483642126358e-15
rhumerus -26.500009656345387 -18.43604225377266 -80.18670405766797
rradius 25.613593406136324
rwrist 6.739516517382935
rhand -17.474033005170792 22.029222998323025
rfingers 7.12502
rthumb 8.77786714819034 -7.7701267052678675
59
root 0.7984704798253406 17.97332385852754 22.07917483646026 -4.035154119856078 -4.00752863971251 0.5397042312895102
lfemur -9.45573635802361 -3.5815513114949065 -24.688555340890275
ltibia 27.28981469577001
lfoot -10.536263749470539 2.9636459416678607
ltoes 1.6478675365228992
rfemur -14.855807374189077 0.5291083671470389 21.35468099459103
rtibia 73.41797214091659
rfoot 2.6191996886224054 -5.9318095766679955
rtoes 10.082941145034274
lowerback 10.101021269177531 1.8558752222910675 0.09232549623768116
upperback 0.5374392038995045 2.4719094643192325 0.34135388918008047
thorax -5.064570469317523 1.228032122168407 0.20260409259842627
lowerneck -16.56446440220058 -2.749249441732803 -1.7383342185597828
upperneck 20.854609817861135 -3.5754985060067113 1.106427511864026
head 9.381851864386839 -1.705137339201141 0.21234347269859855
lclavicle -1.5330383999690246e-15 1.2950779644780937e-15
lhumerus -34.29154358290624 3.7961704597642933 82.97087535743856
lradius 21.51054687235195
lwrist 3.7176365363452275
lhand -26.994283617500592 22.745692338977573
lfingers 7.12502
lthumb -0.41448557740656644 52.714114789109935
rclavicle -1.5330383999690246e-15 1.2950779644780937e-15
rhumerus -26.932574165536295 -19.31213181274505 -79.88536156719299
rradius 25.044004405471707
rwrist 7.325425444646591
rhand -17.337738535965507 21.962230233976488
rfingers 7.12502
rthumb 8.909399462530942 -7.831095348518674
60
root 0.8086148975035317 17.965671152574767 22.062432205282292 -4.107909247351947 -3.4490955725669705 0.8664864471783278
lfemur -7.4664369619411195 -3.7489976170643295 -25.705555750246717
ltibia 26.86217660085747
lfoot -12.194163481196043 3.3958026255105382
ltoes 1.532992087395264
rfemur -19.861844851817445 -0.15336548145180728 20.99526330239588
rtibia 72.5014355683825
rfoot -2.917733797640122 -6.336956684453094
rtoes 7.641300011904393
lowerback 10.261068444304865 1.3149550144156086 -0.6012251756873213
upperback 0.6160213435498247 1.6817745170809237 0.43790603660500915
thorax -5.093116293189418 0.8540436332096355 0.6619502953671664
lowerneck -16.479201532787968 -2.6765082555481556 -1.8831408439186816
upperneck 20.843281477169274 -3.4470095132888163 1.0069622965285892
head 9.35779585016381 -1.6588346544331618 0.22526229501086595
lclavicle -1.9565971679484173e-15 9.038901462965779e-16
lhumerus -32.522306163851134 2.05274376863064 83.17856025856643
lradius 22.175673212214065
lwrist 3.6063955641718026
lhand -26.99766139411274 22.839684782747383
lfingers 7.12502
lthumb -0.4177480932611536 52.81219096313583
rclavicle -1.9565971679484173e-15 9.038901462965779e-16
rhumerus -27.585726849422304 -19.817634239819807 -79.75167479740945
rradius 24.797963610664056
rwrist 7.025584190485249
rhand -17.329012023498503 21.971626903638
rfingers 7.12502
rthumb 8.917813608659838 -7.8191473659540955
